# xmcd
#
# Track frame offsets: 
#        187
#        17042
#        29027
#        45543
#        58526
#        76922
#        94686
#        122203
#        138781
#        155748
#        169868
#        185080
#        197796
#        207475
#        220263
#        234140
#        250204
#        265603
#        284322
#        298867
#
# Disc length: 4270 seconds
#
# Revision: 3
# Processed by: cddbd v1.5.2PL0 Copyright (c) Steve Scherf et al.
# Submitted via: ExactAudioCopy v1.0b3
#
DISCID=2810ac14
DTITLE=divers - Great Boogie Woogie News
DYEAR=1995
DGENRE=Jazz
TTITLE0=Albert Ammons - Boogie woogie stomp
TTITLE1=''Little Brother'' Montgomery - Parish street jive
TTITLE2=Frank Muschalle - Good morning blues
TTITLE3=Meade "Lux" Lewis - Meade's boogie
TTITLE4=Frank Muschalle - Ahrensburg 80A
TTITLE5=Martin Pyrker - Feel the blues
TTITLE6=Martin Pyrker - O.B. blues
TTITLE7=Martin Pyrker - Fort Worth stomp
TTITLE8=Martin Pyrker - Goodbye Ma!
TTITLE9=Tibor Grasser - Hootie's old stuff
TTITLE10=Jay McShann - Walter Brown - Confessin' the blues
TTITLE11=Pete Johnson - Four o'clock blues
TTITLE12=Albert Ammons - Pinetop blues
TTITLE13=Pete Johnson - Boogie woogie
TTITLE14=Pete Johnson - Swingin' the boogie
TTITLE15=Daniel Gugolz - Crawlin with C.R.
TTITLE16=Daniel Gugolz - Honey hill blues
TTITLE17=Daniel Gugolz - Dedication to Henry Brown
TTITLE18=Daniel Gugolz - Little Barrelhouse
TTITLE19=Daniel Gugolz - Old blues memories
EXTD=YEAR: 1995
EXTT0=
EXTT1=
EXTT2=
EXTT3=
EXTT4=
EXTT5=
EXTT6=
EXTT7=
EXTT8=
EXTT9=
EXTT10=
EXTT11=
EXTT12=
EXTT13=
EXTT14=
EXTT15=
EXTT16=
EXTT17=
EXTT18=
EXTT19=
PLAYORDER=
